PathFileType	4	(X/Y/Z)	C:/Users/opensim2020/Desktop/walking_exp_matlab/subject03_walking06_straight_02.trc	
DataRate	CameraRate	NumFrames	NumMarkers	Units	OrigDataRate	OrigDataStartFrame	OrigNumFrames	
100.00	100.00	4	44	mm	100.00	1310	238	
Frame#	Time	LFHD			RFHD			LBHD			RBHD			C7			T10			CLAV			STRN			RBAK			LSHO			LUPA			LELB			LFRM			LWRA			LWRB			LFIN			RSHO			RUPA			RELB			RFRM			RWRA			RWRB			RFIN			LASI			RASI			LPSI			RPSI			LTHI			LKNE			LTIB			LANK			LHEE			LTOE			RTHI			RKNE			RTIB			RANK			RHEE			RTOE			*39			*40			*41			*42			*43			
		X1	Y1	Z1	X2	Y2	Z2	X3	Y3	Z3	X4	Y4	Z4	X5	Y5	Z5	X6	Y6	Z6	X7	Y7	Z7	X8	Y8	Z8	X9	Y9	Z9	X10	Y10	Z10	X11	Y11	Z11	X12	Y12	Z12	X13	Y13	Z13	X14	Y14	Z14	X15	Y15	Z15	X16	Y16	Z16	X17	Y17	Z17	X18	Y18	Z18	X19	Y19	Z19	X20	Y20	Z20	X21	Y21	Z21	X22	Y22	Z22	X23	Y23	Z23	X24	Y24	Z24	X25	Y25	Z25	X26	Y26	Z26	X27	Y27	Z27	X28	Y28	Z28	X29	Y29	Z29	X30	Y30	Z30	X31	Y31	Z31	X32	Y32	Z32	X33	Y33	Z33	X34	Y34	Z34	X35	Y35	Z35	X36	Y36	Z36	X37	Y37	Z37	X38	Y38	Z38	X39	Y39	Z39	X40	Y40	Z40	X41	Y41	Z41	X42	Y42	Z42	X43	Y43	Z43	X44	Y44	Z44	

30	0.290	-928.04999	794.50079	1606.61865	-1060.75012	804.89038	1613.27234	-922.74457	925.65594	1570.73633	-1053.73486	930.56683	1576.77332	-985.93860	964.73669	1409.80286	-996.20172	1004.83710	1097.04810	-988.89020	844.20728	1330.62292	-983.30994	802.96753	1165.67334	-1084.16431	1019.73431	1235.67981	-834.06824	887.87408	1369.12708	-762.09113	871.14850	1177.28064	-752.71057	836.25024	1059.83215	-767.08514	758.21136	959.85675	-813.12561	686.28198	873.56665	-763.06403	705.95099	858.57257	-779.72498	645.31818	805.55914	-1147.27173	890.77460	1357.76465	-1223.76379	905.79327	1137.07800	-1240.72986	900.40027	1024.82947	-1250.72180	901.30432	888.33124	-1222.14526	884.27032	787.24011	-1266.49158	915.84332	789.57300	-1257.53076	908.51611	713.29688	-874.70691	847.96600	924.89453	-1110.81824	826.22656	940.25531	-937.47595	1004.39990	950.76697	-1084.44995	990.13715	966.34924	-827.29492	922.85931	622.96484	-845.99084	933.84058	442.87735	-860.30756	1086.57227	313.60138	-914.07861	1232.40454	168.17433	-953.16199	1277.51111	183.46027	-961.94287	1173.94995	33.71873	-1157.05750	836.06085	645.93146	-1114.66431	788.39075	472.83224	-1118.15576	797.46283	281.53510	-1066.77625	782.65472	67.17388	-1014.56958	825.06982	35.71999	-1053.02588	639.79547	32.99108	-970.75037	875.12195	1675.69727												 
31	0.300	-929.25690	784.84003	1607.55383	-1061.90332	795.04547	1613.89136	-923.98145	916.03387	1571.77966	-1054.97900	920.75580	1577.49695	-987.18378	955.15820	1410.45874	-996.92548	994.81586	1097.90393	-989.30457	834.45605	1331.74536	-983.32202	792.90070	1166.74219	-1085.51099	1008.92352	1236.31592	-835.19495	878.70905	1370.67700	-763.21729	862.79694	1178.88538	-754.09766	829.42792	1060.85938	-768.01398	752.81049	959.66730	-813.53119	682.12793	871.94006	-763.45154	702.03522	857.49359	-780.32117	642.74640	802.48700	-1147.95166	880.11102	1358.67664	-1224.86365	893.20801	1138.09106	-1241.83362	886.76611	1025.97485	-1251.74255	885.94501	889.42163	-1223.09387	867.85468	788.47803	-1267.55127	899.28943	790.51782	-1258.50293	891.55634	714.19592	-875.39929	837.99097	925.34247	-1111.50293	815.83423	941.51337	-938.08942	994.49756	951.25226	-1084.99768	979.57703	967.66473	-827.65796	906.54761	621.77515	-846.04895	911.92065	441.51953	-859.14435	1065.93103	315.41858	-912.73401	1216.82166	176.04074	-951.92822	1261.67395	192.22949	-957.91412	1161.78906	38.70050	-1157.57068	829.79645	645.96307	-1115.37732	783.84387	472.47699	-1118.34082	794.82593	281.61371	-1066.49719	782.50940	67.19987	-1014.46722	825.03168	35.72692	-1052.78931	639.67938	32.85572	-972.11664	865.20758	1676.90723												 
32	0.310	-930.33331	775.23273	1608.52209	-1063.04944	785.28717	1614.55896	-925.18805	906.53107	1572.74341	-1056.26160	911.06384	1578.19580	-988.38855	945.74603	1411.09937	-997.80548	984.86749	1098.67615	-989.79669	824.68237	1332.43323	-983.18073	783.09326	1167.56860	-1086.82935	998.32288	1236.75830	-836.07782	869.75549	1371.94470	-764.16718	854.57391	1180.01038	-755.27100	822.92975	1061.49536	-768.74969	747.42542	959.03052	-813.91302	677.97998	869.69702	-763.72449	698.17719	856.06024	-780.85284	640.43762	798.88531	-1148.52930	869.42609	1359.34131	-1225.99463	880.66589	1138.78040	-1243.09314	873.20898	1026.80493	-1252.81409	870.57806	890.31409	-1223.95129	851.18976	789.57080	-1268.52393	882.51257	791.18109	-1259.30334	874.05603	714.84973	-875.96436	828.12427	926.12732	-1111.92310	805.74426	942.23163	-938.88586	984.89191	951.38287	-1085.85815	969.44067	968.62842	-828.10004	890.40302	620.87854	-846.19727	889.42120	440.55276	-858.83545	1045.07727	317.81125	-911.72906	1200.01953	183.49609	-951.63788	1244.92090	199.70848	-952.50586	1147.23718	43.80487	-1157.96436	823.59790	646.08630	-1115.82654	779.02496	471.99625	-1118.54541	792.14166	281.77823	-1066.32642	782.37073	67.21413	-1014.40387	825.04913	35.74929	-1052.58997	639.58783	32.77962	-973.58783	855.94916	1677.55066												 
33	0.320	-931.34625	765.82159	1609.54236	-1064.11279	775.60272	1615.29626	-926.32550	897.07507	1573.69714	-1057.43164	901.38019	1578.82532	-989.47876	936.38159	1411.85315	-998.79962	975.06049	1099.38989	-990.04547	815.26007	1333.39526	-983.03943	773.62543	1168.26208	-1088.14124	988.02740	1237.15430	-836.71875	860.91901	1372.93066	-764.80548	846.35382	1180.78760	-756.19824	816.31805	1061.70337	-769.31738	742.08289	958.04626	-814.03644	673.53217	867.42853	-763.85504	694.57513	854.27924	-781.28729	638.43744	794.91010	-1149.10803	858.77161	1359.72217	-1227.12610	868.15442	1139.25037	-1244.42114	859.66498	1027.34961	-1253.83582	854.99866	890.86816	-1224.67529	834.39667	790.42554	-1269.33582	865.49127	791.57617	-1260.04443	856.15344	715.46521	-875.97400	819.12256	926.43915	-1112.09216	795.81348	942.47925	-939.87585	975.50763	951.25940	-1086.95959	959.52344	969.17639	-828.82660	874.68646	620.97845	-846.41431	867.04877	440.53540	-858.92023	1024.27051	320.85999	-910.73004	1181.85840	189.87686	-951.79053	1226.99658	205.94054	-946.97211	1130.70056	48.91566	-1158.72839	817.47870	646.32184	-1116.38000	774.20856	471.55975	-1118.92151	789.45764	281.91965	-1066.31592	782.37280	67.29470	-1014.46722	825.11060	35.75275	-1052.51758	639.57953	32.72399	-974.76965	846.51556	1678.41602												 
